HIERARCHY
ROOT Hips
{
	OFFSET 0.000000 0.000000 0.000000
	CHANNELS 6 Xposition Yposition Zposition Xrotation Yrotation Zrotation
	JOINT LeftUpLeg_virtual
	{
		OFFSET 0.000000 0.000000 0.000000
		CHANNELS 3 Xrotation Yrotation Zrotation
		JOINT LeftUpLeg
		{
			OFFSET 13.026900 -6.336304 -1.092800
			CHANNELS 3 Xrotation Yrotation Zrotation
			JOINT LeftLeg
			{
				OFFSET 0.524474 -46.096886 9.782700
				CHANNELS 3 Xrotation Yrotation Zrotation
				JOINT LeftFoot
				{
					OFFSET -0.524474 -53.427422 -12.948200
					CHANNELS 3 Xrotation Yrotation Zrotation
					JOINT LeftToeBase
					{
						OFFSET 0.192200 -14.009700 16.364100
						CHANNELS 3 Xrotation Yrotation Zrotation
						JOINT LeftToe_End
						{
							OFFSET -1.784700 -0.561700 9.474800
							CHANNELS 3 Xrotation Yrotation Zrotation
							End Site
							{
								OFFSET 0 0 0
							}
						}
					}
				}
			}
		}
	}
	JOINT RightUpLeg_virtual
	{
		OFFSET 0.000000 0.000000 0.000000
		CHANNELS 3 Xrotation Yrotation Zrotation
		JOINT RightUpLeg
		{
			OFFSET -12.883000 -6.336304 -1.092800
			CHANNELS 3 Xrotation Yrotation Zrotation
			JOINT RightLeg
			{
				OFFSET -0.524587 -46.096825 9.782800
				CHANNELS 3 Xrotation Yrotation Zrotation
				JOINT RightFoot
				{
					OFFSET 0.524587 -53.427383 -12.948300
					CHANNELS 3 Xrotation Yrotation Zrotation
					JOINT RightToeBase
					{
						OFFSET -0.192200 -14.009700 16.364100
						CHANNELS 3 Xrotation Yrotation Zrotation
						JOINT RightToe_End
						{
							OFFSET 1.784700 -0.561700 9.474800
							CHANNELS 3 Xrotation Yrotation Zrotation
							End Site
							{
								OFFSET 0 0 0
							}
						}
					}
				}
			}
		}
	}
	JOINT Spine_virtual
	{
		OFFSET 0.000000 0.000000 0.000000
		CHANNELS 3 Xrotation Yrotation Zrotation
		JOINT Spine
		{
			OFFSET 0.072000 7.257294 -0.789700
			CHANNELS 3 Xrotation Yrotation Zrotation
			JOINT Spine1
			{
				OFFSET 0.000000 12.508769 -0.658067
				CHANNELS 3 Xrotation Yrotation Zrotation
				JOINT Spine1_split
				{
					OFFSET 0.000000 12.508769 -0.658067
					CHANNELS 3 Xrotation Yrotation Zrotation
					JOINT Spine2
					{
						OFFSET 0.000000 12.508769 -0.658067
						CHANNELS 3 Xrotation Yrotation Zrotation
						JOINT Neck_virtual
						{
							OFFSET 0.000000 0.000000 0.000000
							CHANNELS 3 Xrotation Yrotation Zrotation
							JOINT Neck
							{
								OFFSET 0.000000 14.033295 7.520400
								CHANNELS 3 Xrotation Yrotation Zrotation
								JOINT Head
								{
									OFFSET 0.000000 8.198502 5.703100
									CHANNELS 3 Xrotation Yrotation Zrotation
									JOINT HeadTop_End
									{
										OFFSET 0.000000 17.760803 13.332701
										CHANNELS 3 Xrotation Yrotation Zrotation
										End Site
										{
											OFFSET 0 0 0
										}
									}
								}
							}
						}
						JOINT LeftShoulder_virtual
						{
							OFFSET 0.000000 0.000000 0.000000
							CHANNELS 3 Xrotation Yrotation Zrotation
							JOINT LeftShoulder
							{
								OFFSET 6.292450 5.785301 -0.669000
								CHANNELS 3 Xrotation Yrotation Zrotation
								JOINT LeftShoulder_split
								{
									OFFSET 6.292450 5.785301 -0.669000
									CHANNELS 3 Xrotation Yrotation Zrotation
									JOINT LeftArm
									{
										OFFSET 13.907140 -6.093903 1.965100
										CHANNELS 3 Xrotation Yrotation Zrotation
										JOINT LeftForeArm
										{
											OFFSET 34.140198 0.000000 0.000000
											CHANNELS 3 Xrotation Yrotation Zrotation
											JOINT LeftHand
											{
												OFFSET 40.960209 0.000000 0.000000
												CHANNELS 3 Xrotation Yrotation Zrotation
												End Site
												{
													OFFSET 0 0 0
												}
											}
										}
									}
								}
							}
						}
						JOINT RightShoulder_virtual
						{
							OFFSET 0.000000 0.000000 0.000000
							CHANNELS 3 Xrotation Yrotation Zrotation
							JOINT RightShoulder
							{
								OFFSET -6.292450 5.785301 -0.669000
								CHANNELS 3 Xrotation Yrotation Zrotation
								JOINT RightShoulder_split
								{
									OFFSET -6.292450 5.785301 -0.669000
									CHANNELS 3 Xrotation Yrotation Zrotation
									JOINT RightArm
									{
										OFFSET -13.907140 -6.093903 1.965100
										CHANNELS 3 Xrotation Yrotation Zrotation
										JOINT RightForeArm
										{
											OFFSET -34.140198 0.000000 0.000000
											CHANNELS 3 Xrotation Yrotation Zrotation
											JOINT RightHand
											{
												OFFSET -40.960209 0.000000 0.000000
												CHANNELS 3 Xrotation Yrotation Zrotation
												End Site
												{
													OFFSET 0 0 0
												}
											}
										}
									}
								}
							}
						}
					}
				}
			}
		}
	}
}
MOTION
Frames: 7
Frame Time: 0.03333333
-0.095736 112.966545 -1.109051 0.000000 0.000000 0.000000 0.722095 0.108916 0.275232 -13.703650 -2.473565 12.821889 19.416889 -0.202397 -2.207818 -5.551222 12.384559 -6.671666 0.486527 -0.082978 -0.982341 0.000000 0.000000 0.000000 1.444852 -1.405076 0.399969 -13.918997 -1.763440 -12.259126 21.804663 1.892871 -0.564388 -4.241601 -11.915443 11.120814 -3.083848 0.432573 0.897244 0.000000 0.000000 0.000000 1.899253 -1.571579 0.084629 3.262041 0.283323 1.390136 3.351611 0.102654 0.287958 0.728724 0.029662 0.209133 0.000000 0.000000 0.000000 2.724794 0.164174 0.153037 -2.949215 -0.319729 0.289440 -0.387613 -0.667373 1.151501 0.000000 0.000000 0.000000 2.592670 0.217441 0.275587 1.255936 9.759833 -13.219530 -0.562467 -2.204233 -0.611594 12.442023 -5.780436 -52.676092 -0.309456 -32.205028 0.836623 0.000000 0.000000 0.000000 2.651106 0.108216 0.352510 1.699278 -9.469485 11.590686 1.284829 2.004700 -1.857935 1.441315 18.010932 63.237901 2.065318 25.001614 0.276115 0.000000 0.000000 0.000000 
0.337246 112.797913 -1.616142 0.000000 0.000000 0.000000 0.813273 -0.289317 0.385368 -14.037952 -2.474127 12.516726 19.421800 -0.144741 -2.297072 -5.825542 11.905600 -6.808254 0.321834 -0.088911 -0.943013 0.000000 0.000000 0.000000 1.460493 -1.519361 0.534850 -14.143892 -2.018811 -12.633508 21.809982 1.718138 -0.508081 -4.393936 -11.865609 11.041054 -3.164569 0.407626 0.886640 0.000000 0.000000 0.000000 1.942300 -1.788057 0.169090 3.316383 0.255371 1.380890 3.370403 0.057665 0.270156 0.928042 -0.232443 0.153001 0.000000 0.000000 0.000000 2.753198 0.151614 0.130091 -2.942732 -0.205677 0.177852 -0.247996 -0.580604 1.077690 0.000000 0.000000 0.000000 2.654025 0.174845 0.259158 1.241427 9.555822 -13.154274 -0.585270 -2.005784 -0.564245 12.260742 -6.254833 -52.899757 -0.299666 -32.378471 0.864605 0.000000 0.000000 0.000000 2.680819 0.072743 0.366775 1.723473 -9.296075 11.640751 1.335677 2.000312 -1.954188 1.337349 18.010514 63.133248 2.083144 24.809580 0.317519 0.000000 0.000000 0.000000 
1.085754 112.495148 -2.053291 0.000000 0.000000 0.000000 0.841888 -0.775098 0.489180 -14.866950 -2.428144 12.145938 20.309608 -0.404343 -2.423793 -6.048797 10.706356 -7.066252 0.120536 -0.122437 -0.808847 0.000000 0.000000 0.000000 1.418531 -1.773599 0.692714 -14.327964 -2.054599 -13.219460 21.855118 1.658061 -0.463291 -4.537423 -11.760382 11.315118 -3.144244 0.422528 0.784631 0.000000 0.000000 0.000000 2.043363 -2.065752 0.294691 3.426030 0.143351 1.316219 3.315211 -0.003548 0.238505 1.026103 -0.298481 0.082278 0.000000 0.000000 0.000000 2.715428 0.105759 0.098193 -2.903163 -0.043425 0.043021 -0.096839 -0.500792 1.086252 0.000000 0.000000 0.000000 2.639053 0.116041 0.236941 1.222710 9.107554 -13.098158 -0.519694 -1.752878 -0.454689 11.998210 -7.042240 -53.214701 -0.242090 -32.412902 0.864527 0.000000 0.000000 0.000000 2.663536 0.007064 0.370406 1.749388 -8.813732 11.934637 1.289383 1.938744 -2.120481 1.141224 18.052757 62.760211 2.043243 24.206124 0.354547 0.000000 0.000000 0.000000 
2.061312 112.103218 -2.238407 0.000000 0.000000 0.000000 0.886801 -1.250577 0.589691 -16.014893 -2.377334 11.768772 21.805353 -0.771827 -2.544289 -6.304915 9.065067 -7.197723 0.102708 -0.174237 -0.629312 0.000000 0.000000 0.000000 1.441424 -2.064466 0.821435 -14.425897 -1.928054 -13.936262 21.875580 1.699722 -0.400985 -4.624705 -11.589083 11.838604 -3.028019 0.476383 0.594528 0.000000 0.000000 0.000000 2.196604 -2.352896 0.430554 3.566452 -0.042385 1.215828 3.189718 -0.070694 0.200476 0.930155 -0.233088 0.071827 0.000000 0.000000 0.000000 2.629842 0.034207 0.067170 -2.822325 0.140121 -0.091165 0.033642 -0.466508 1.195433 0.000000 0.000000 0.000000 2.550083 0.051296 0.218298 1.200139 8.484398 -13.031023 -0.494897 -1.412879 -0.356507 11.687640 -8.001745 -53.599387 -0.147984 -32.297458 0.836427 0.000000 0.000000 0.000000 2.593107 -0.081835 0.358970 1.770271 -8.071229 12.377817 1.171813 1.860329 -2.328611 0.841280 18.101977 62.191953 1.955867 23.373049 0.389578 0.000000 0.000000 0.000000 
3.139942 111.698029 -2.251598 0.000000 0.000000 0.000000 0.967709 -1.692080 0.681900 -17.242628 -2.347484 11.373833 23.485532 -1.003579 -2.621168 -6.715077 7.344613 -6.968916 0.256552 -0.222929 -0.443874 0.000000 0.000000 0.000000 1.580467 -2.428698 0.896464 -14.475187 -1.754818 -14.694580 21.829447 1.731595 -0.283506 -4.658029 -11.440287 12.483191 -2.901211 0.557696 0.367596 0.000000 0.000000 0.000000 2.393219 -2.622860 0.551159 3.726054 -0.286244 1.099071 3.022423 -0.141502 0.164470 0.854055 -0.142155 0.069248 0.000000 0.000000 0.000000 2.505585 -0.053553 0.049923 -2.701444 0.304832 -0.206041 0.107374 -0.506141 1.407529 0.000000 0.000000 0.000000 2.409444 -0.016499 0.211405 1.172569 7.773010 -12.947961 -0.570819 -1.080814 -0.363559 11.351762 -9.034014 -54.033493 -0.051850 -32.113808 0.783013 0.000000 0.000000 0.000000 2.471426 -0.186103 0.333087 1.775500 -7.133717 12.862122 1.085838 1.771848 -2.505958 0.486109 18.135791 61.511768 1.835499 22.464701 0.416037 0.000000 0.000000 0.000000 
4.182096 111.395844 -2.083775 0.000000 0.000000 0.000000 1.127820 -2.073130 0.755340 -18.219948 -2.321437 10.936017 24.918489 -0.971200 -2.618143 -7.380772 5.841599 -6.311676 0.429841 -0.252825 -0.274979 0.000000 0.000000 0.000000 1.788080 -2.704581 0.921439 -14.621929 -1.595106 -15.447941 21.836344 1.693725 -0.114454 -4.636473 -11.364377 13.175590 -3.067097 0.640655 0.147353 0.000000 0.000000 0.000000 2.590990 -2.769270 0.626093 3.899336 -0.567715 0.976844 2.842267 -0.217525 0.136183 0.812848 0.052518 0.085535 0.000000 0.000000 0.000000 2.358554 -0.152199 0.050018 -2.552190 0.430839 -0.282318 0.112789 -0.627342 1.724497 0.000000 0.000000 0.000000 2.240762 -0.082250 0.214547 1.140417 7.051585 -12.842691 -0.699064 -0.830900 -0.411083 11.003602 -10.031651 -54.500429 0.038714 -31.937118 0.714754 0.000000 0.000000 0.000000 2.307427 -0.296376 0.294640 1.766375 -6.094651 13.309159 1.038171 1.663337 -2.628565 0.150171 18.146255 60.780897 1.716552 21.537205 0.427920 0.000000 0.000000 0.000000 
5.102174 111.228378 -1.796036 0.000000 0.000000 0.000000 1.350487 -2.452449 0.802732 -18.813599 -2.260120 10.421019 25.923252 -0.704253 -2.526319 -8.203756 4.637854 -5.403565 0.473645 -0.264235 -0.134363 0.000000 0.000000 0.000000 2.045166 -2.884855 0.917926 -14.938167 -1.450863 -16.200024 22.188226 1.617964 0.107565 -4.522048 -11.281011 13.835002 -3.880737 0.709656 -0.023011 0.000000 0.000000 0.000000 2.746453 -2.723558 0.646071 4.114672 -0.869340 0.856332 2.674654 -0.295077 0.118852 0.840639 0.237245 0.107942 0.000000 0.000000 0.000000 2.197945 -0.253605 0.065732 -2.402508 0.515611 -0.308588 0.085016 -0.819207 2.125575 0.000000 0.000000 0.000000 2.070438 -0.143966 0.221344 1.105847 6.364875 -12.698099 -0.824241 -0.704373 -0.464856 10.675032 -10.904242 -55.007403 0.110770 -31.808437 0.635357 0.000000 0.000000 0.000000 2.121705 -0.401433 0.253166 1.747796 -5.025537 13.698539 0.992547 1.519832 -2.687770 -0.133742 18.113090 60.041037 1.620772 20.619462 0.423861 0.000000 0.000000 0.000000 
